# xmcd
#
# Track frame offsets:
#	150
#	22144
#	37060
#	46655
#	59538
#	69356
#	86362
#	96514
#	115582
#	124703
#	136387
#	148016
#	165691
#	178852
#	189701
#	207264
#	220091
#	235425
#	252626
#
# Disc length: 3654 seconds
#
# Revision: 0
# Processed by: cddbd v1.5.2PL0 Copyright (c) Steve Scherf et al.
# Submitted via: EasyCDDAExtractor 16.0.8.2
#
DISCID=210e4413
DTITLE=Συλλογικός δίσκος - Χοροί και τραγούδια Ηπείρου 1
DYEAR=1900
DGENRE=Παραδοσιακή
TTITLE0=Βάγιας Δημήτρης - Ξενητεμένο μου πουλί
TTITLE1=Μπέλλος Στέλιος - Εξέφεξε η ανατολή [στα τρία]
TTITLE2=Άνευ ερμηνευτού - Κοφτός [οργανικό]
TTITLE3=Κώστας Α. - Περατιανός
TTITLE4=Άνευ ερμηνευτού - Φυσούνι [οργανικό]
TTITLE5=Κιτσάκης Αλέκος - Κατσαντώνης [τσάμικος]
TTITLE6=Άνευ ερμηνευτού - Παλαμάκια [οργανικό]
TTITLE7=Σιάτρας Σάββας - Γάϊτα διπλή
TTITLE8=Άνευ ερμηνευτού - Παραμυθιά [οργανιικό]
TTITLE9=Άνευ ερμηνευτού - Τζίτζιρας [οργανικό]
TTITLE10=Μπέλλος Στέλιος - Μενούσης
TTITLE11=Βάγιας Δημήτρης - Για μιά φορά είν' η λεβεντιά
TTITLE12=Σιάτρας Σάββας - Δόντια πυκνά
TTITLE13=Άνευ ερμηνευτού - Ποταμιά [οργανικό]
TTITLE14=Κιτσάκης Αλέκος - Γιατρός
TTITLE15=Βάγιας Δημήτρης - Τα πήραμε τα Γιάννενα [συρτός]
TTITLE16=Χορωδία - Τέτοια ώρα ήταν εψές [καγκελάρι]
TTITLE17=Βάγιας Δημήτρης - Πέρδικα
TTITLE18=Γεροδήμος Κώστας - Συγκαθιστός Συρράκου
EXTD=
EXTT0=
EXTT1=
EXTT2=
EXTT3=
EXTT4=
EXTT5=
EXTT6=
EXTT7=
EXTT8=
EXTT9=
EXTT10=
EXTT11=
EXTT12=
EXTT13=
EXTT14=
EXTT15=
EXTT16=
EXTT17=
EXTT18=
PLAYORDER=
